<?xml version="1.0" encoding="utf-8"?>
<!-- Generator: Adobe Illustrator 22.0.1, SVG Export Plug-In . SVG Version: 6.00 Build 0)  -->
<svg version="1.1" id="圖層_1" xmlns="http://www.w3.org/2000/svg" xmlns:xlink="http://www.w3.org/1999/xlink" x="0px" y="0px"
	 viewBox="0 0 202.6 43.7" style="enable-background:new 0 0 202.6 43.7;" xml:space="preserve">
<style type="text/css">
	.st0{fill:#FFFFFF;}
	.st1{fill:#17A2B8;}
</style>
<title>logo_w</title>
<desc>Created with Sketch.</desc>
<g>
	<path class="st0" d="M68.2,14.7c0.4,0,0.6,0.1,1,0.4c0.2,0.3,0.4,0.6,0.4,1c0,0.4-0.1,0.7-0.4,1c-0.2,0.3-0.5,0.4-1,0.4H46.7
		c-0.4,0-0.6-0.1-1-0.4c-0.2-0.3-0.4-0.6-0.4-1c0-0.4,0.1-0.7,0.4-1c0.2-0.3,0.5-0.4,1-0.4h9c0.2,0,0.3-0.1,0.3-0.3V9.8
		c0-0.4,0.1-0.7,0.4-1c0.3-0.3,0.6-0.4,1-0.4c0.4,0,0.7,0.1,1,0.4c0.3,0.3,0.4,0.6,0.4,1v4.6c0,0.2,0.1,0.3,0.3,0.3H68.2z
		 M50.9,22.5c0.2-0.4,0.4-0.7,0.9-1c0.2-0.1,0.5-0.2,0.7-0.2c0.1,0,0.3,0,0.4,0.1c0.4,0.1,0.6,0.3,0.9,0.7c0.1,0.2,0.1,0.4,0.1,0.6
		s0,0.3-0.1,0.5c-1.5,3.7-3.3,6.9-5.4,9.7c-0.3,0.3-0.6,0.5-1.1,0.5c-0.1,0-0.1,0-0.2,0c-0.4,0-0.7-0.1-1.1-0.3
		c-0.3-0.2-0.5-0.5-0.5-1c0-0.1,0-0.1,0-0.2c0-0.3,0.1-0.6,0.3-1C47.9,28.8,49.6,25.9,50.9,22.5z M61.3,23.3
		c-0.1-0.2-0.2-0.4-0.2-0.6c0-0.1,0-0.2,0.1-0.3c0.1-0.3,0.3-0.6,0.6-0.7c0.2-0.1,0.4-0.1,0.6-0.1c0.2,0,0.3,0,0.5,0.1
		c0.4,0.1,0.7,0.3,1,0.7c2.4,3.4,4.1,6.5,5.2,9.2c0,0.1,0,0.3,0,0.5c0,0.2,0,0.4-0.1,0.6c-0.2,0.4-0.4,0.7-0.9,0.9
		c-0.2,0.1-0.4,0.1-0.5,0.1c-0.2,0-0.4,0-0.5-0.1c-0.4-0.2-0.6-0.4-0.9-0.9C65.1,29.9,63.4,26.7,61.3,23.3z"/>
	<path class="st0" d="M98.5,14.1c0.6,0,1.2,0.2,1.7,0.7c0.4,0.4,0.6,1.1,0.6,1.7v14.2c0,0.9-0.1,1.4-0.3,1.8c-0.2,0.4-0.6,0.7-1.2,1
		C98.8,33.7,97.3,34,95,34l0,0c-0.3,0-0.6-0.1-1-0.3c-0.3-0.2-0.5-0.5-0.7-1c-0.1-0.3-0.1-0.5,0.1-0.9c0.2-0.3,0.4-0.4,0.7-0.3
		c0.6,0,1.3,0,1.8,0s1.2,0,1.7,0c0.3,0,0.5-0.1,0.6-0.2c0.1-0.1,0.2-0.3,0.2-0.5v-2.7c0-0.2-0.1-0.3-0.3-0.3H83.9
		c-0.2,0-0.3,0.1-0.3,0.2c-0.6,2.1-1.7,3.8-3.1,5.2c-0.2,0.2-0.5,0.3-0.7,0.3c-0.1,0-0.1,0-0.1,0c-0.3,0-0.6-0.2-1-0.4
		c-0.2-0.2-0.3-0.5-0.3-0.9c0-0.3,0.1-0.6,0.4-0.9c0.5-0.5,1-1,1.3-1.6c0.6-0.9,1.1-1.8,1.3-2.9c0.3-1.1,0.4-1.9,0.5-2.8
		c0.1-0.9,0.1-1.7,0.1-2.8v-4.5c0,0,0-0.1-0.1-0.1h-0.1c-0.2,0.2-0.4,0.4-0.6,0.5c-0.2,0.2-0.5,0.3-0.7,0.3c-0.1,0-0.1,0-0.2,0
		c-0.3-0.1-0.6-0.2-1-0.5c-0.2-0.2-0.3-0.5-0.3-0.9c0-0.3,0.1-0.6,0.4-0.7c1.3-1,2.4-2.1,3.4-3.3c1-1.1,1.7-2.2,2.4-3.3
		c0.2-0.3,0.5-0.6,0.9-0.9c0.3-0.1,0.5-0.2,0.9-0.2c0.1,0,0.2,0,0.3,0.1h0.2C87.6,8,87.9,8.1,88,8.4c0.1,0.3,0.1,0.5,0,0.7
		c0,0.1,0,0.1,0.1,0.1h5.9h0.1c0.2-0.1,0.5,0,0.7,0.1l0.5,0.3c0.2,0.2,0.4,0.4,0.5,0.7c0.1,0.3,0,0.5-0.1,0.9
		c-0.5,0.9-1.1,1.7-1.7,2.6c0,0.1,0,0.1,0,0.1l0.1,0.1C94.2,14.1,98.5,14.1,98.5,14.1z M90,22.2c0-0.2-0.1-0.3-0.3-0.3h-4.9
		c-0.2,0-0.3,0.1-0.3,0.3c-0.1,1-0.1,1.8-0.3,2.8c0,0.1,0,0.1,0,0.2c0,0.1,0.1,0.1,0.2,0.1h5.2c0.2,0,0.3-0.1,0.3-0.3v-2.8H90z
		 M84.8,16.4c-0.2,0-0.3,0.1-0.3,0.3v2.7c0,0.2,0.1,0.3,0.3,0.3h4.9c0.2,0,0.3-0.1,0.3-0.3v-2.7c0-0.2-0.1-0.3-0.3-0.3H84.8z
		 M92.4,11.6c0-0.1,0-0.1,0-0.2s-0.1-0.1-0.1-0.1h-5.6c-0.2,0-0.3,0.1-0.4,0.2c-0.5,0.7-1.1,1.5-1.6,2.1c0,0.1,0,0.1,0,0.1l0.1,0.1
		h5.9c0.2,0,0.3-0.1,0.4-0.2C91.6,13.1,92,12.4,92.4,11.6z M98.1,19.6c0.2,0,0.3-0.1,0.3-0.3v-2.7c0-0.2-0.1-0.3-0.3-0.3h-5.3
		c-0.2,0-0.3,0.1-0.3,0.3v2.7c0,0.2,0.1,0.3,0.3,0.3H98.1z M92.4,25.1c0,0.2,0.1,0.3,0.3,0.3h5.3c0.2,0,0.3-0.1,0.3-0.3v-2.8
		c0-0.2-0.1-0.3-0.3-0.3h-5.3c-0.2,0-0.3,0.1-0.3,0.3V25.1z"/>
	<path class="st0" d="M135.4,9.7c0.2,0.2,0.3,0.5,0.3,1c0,0.3-0.1,0.6-0.3,1c-0.2,0.2-0.5,0.4-0.9,0.4h-6.6c-0.2,0-0.3,0.1-0.3,0.3
		v3.1c0,0.2,0.1,0.3,0.3,0.3h4.5c0.6,0,1.2,0.2,1.7,0.7c0.4,0.4,0.6,1.1,0.6,1.7v14.3c0,0.4-0.1,0.7-0.4,1c-0.2,0.2-0.5,0.4-1,0.4
		c-0.3,0-0.6-0.1-1-0.4c-0.2-0.2-0.4-0.5-0.4-1v-0.1c0-0.1-0.1-0.2-0.2-0.2h-16.7c-0.1,0-0.2,0.1-0.2,0.2v0.2c0,0.3-0.1,0.6-0.4,1
		c-0.2,0.2-0.5,0.4-0.9,0.4s-0.6-0.1-0.9-0.4c-0.2-0.2-0.4-0.5-0.4-1V18c0-0.6,0.2-1.3,0.6-1.7c0.4-0.4,1-0.7,1.7-0.7h3.8
		c0.2,0,0.3-0.1,0.3-0.3v-3.1c0-0.2-0.1-0.3-0.3-0.3h-6.1c-0.3,0-0.6-0.1-0.9-0.4c-0.2-0.2-0.3-0.5-0.3-1c0-0.3,0.1-0.6,0.3-1
		c0.2-0.2,0.5-0.4,0.9-0.4h21.8C134.9,9.3,135.1,9.4,135.4,9.7z M115.2,29.2c0,0.2,0.1,0.3,0.3,0.3H132c0.2,0,0.3-0.1,0.3-0.3V25
		c0-0.1,0-0.1-0.1-0.1h-0.1c-0.3,0.3-0.9,0.4-1.5,0.4h-2.7c-1.2,0-1.9-0.2-2.2-0.6c-0.3-0.4-0.5-1.3-0.5-2.5v-4
		c0-0.2-0.1-0.3-0.3-0.3h-3c-0.2,0-0.3,0.1-0.3,0.3v0.6c0,2.9-1,5.2-3,6.8c-0.4,0.3-0.9,0.4-1.3,0.4c-0.1,0-0.2,0-0.3,0
		c-0.5-0.1-1.1-0.3-1.6-0.7h-0.1l-0.1,0.1v3.7H115.2z M119.3,18.4c0-0.2-0.1-0.3-0.3-0.3h-3.5c-0.2,0-0.3,0.1-0.3,0.3v6.5
		c0,0.1,0,0.1,0.1,0.1s0.1,0,0.2,0c2.6-1.4,3.8-3.4,3.8-6.2V18.4z M124.8,15.6c0.2,0,0.3-0.1,0.3-0.3v-3.1c0-0.2-0.1-0.3-0.3-0.3h-3
		c-0.2,0-0.3,0.1-0.3,0.3v3.1c0,0.2,0.1,0.3,0.3,0.3H124.8z M132,21.7c0.1,0,0.1,0,0.1-0.1v-3.3c0-0.2-0.1-0.3-0.3-0.3h-4.1
		c-0.2,0-0.3,0.1-0.3,0.3v4c0,0.3,0,0.5,0.1,0.6c0.1,0.1,0.3,0.1,0.6,0.1h1.8c0.3,0,0.4-0.1,0.5-0.3c0-0.1,0-0.1,0.1-0.2
		c0.1-0.3,0.2-0.5,0.5-0.6C131.4,21.7,131.8,21.7,132,21.7z"/>
	<path class="st0" d="M154.8,12.3c0.2-0.1,0.4,0,0.6,0.1l0.4,0.2c0.2,0.1,0.3,0.3,0.4,0.5c0.1,0.2,0,0.4-0.1,0.6
		c-1,1.6-2.4,3-4.1,4.2s-3.7,2-5.9,2.7c-0.3,0.1-0.5,0.1-0.9,0c-0.3-0.1-0.5-0.3-0.6-0.5c-0.1-0.2-0.1-0.4-0.1-0.6
		c0.1-0.2,0.2-0.4,0.4-0.4c1.5-0.4,2.9-1,4.2-1.6c0.1,0,0.1-0.1,0.1-0.1c0-0.1,0-0.1-0.1-0.1c-0.7-0.5-1.6-1-2.4-1.4
		c-0.1-0.1-0.2,0-0.3,0c-0.2,0.1-0.3,0.2-0.5,0.3c-0.2,0.1-0.5,0.2-0.9,0.2c-0.3,0-0.5-0.1-0.7-0.3c-0.2-0.1-0.2-0.3-0.2-0.4
		c0-0.3,0.1-0.5,0.3-0.6c1-0.5,1.8-1.1,2.5-1.8c0.5-0.5,1.2-0.7,1.8-0.7c0.2,0,0.4,0,0.6,0.1l0,0c0.1,0,0.2,0,0.3,0s0.1,0,0.1-0.1
		V9.6c0-0.3,0.1-0.5,0.3-0.7c0.2-0.2,0.4-0.3,0.7-0.3l0,0c0.3,0,0.5,0.1,0.7,0.3c0.2,0.2,0.3,0.4,0.3,0.7c0,0.1,0,0.1,0.1,0.1h3.6
		c0.2,0,0.4,0.1,0.5,0.2s0.2,0.3,0.2,0.6c0,0.2-0.1,0.4-0.2,0.5c-0.1,0.1-0.3,0.2-0.5,0.2h-3.5c-0.2,0-0.3,0.1-0.3,0.3v0.6
		c0,0.2,0.1,0.3,0.3,0.3h2.6C154.7,12.3,154.7,12.3,154.8,12.3z M164.5,28.6c0.3-0.2,0.5-0.3,0.9-0.3c0.2,0,0.5,0.1,0.7,0.2l0.1,0.1
		c0.2,0.1,0.3,0.3,0.3,0.6c0,0.2-0.1,0.4-0.3,0.5c-1,0.6-2,1.3-3,1.8c0,0,0,0,0,0.1c0,0,0,0.1,0.1,0.1c1.3,0.3,2.9,0.5,4.7,0.7
		c0.2,0,0.4,0.1,0.5,0.3c0.1,0.2,0.1,0.4-0.1,0.6c-0.2,0.3-0.4,0.5-0.7,0.7c-0.2,0.1-0.5,0.2-0.7,0.2c-0.1,0-0.1,0-0.2,0
		c-3.5-0.4-6.4-1.4-8.5-2.7c-0.1,0-0.1,0-0.1,0.1c0,0.3-0.1,0.6-0.3,0.9c-0.2,0.2-0.4,0.4-0.7,0.4c-3.6,0.4-6.7,0.7-9.4,1
		c-0.3,0-0.5,0-0.7-0.2c-0.2-0.2-0.3-0.4-0.4-0.7c0-0.3,0-0.5,0.2-0.7c0.2-0.2,0.4-0.3,0.6-0.3l1.9-0.2c0.2,0,0.3-0.1,0.3-0.3v-8.4
		c0-0.1,0-0.1-0.1-0.1c-0.1,0-0.1,0-0.2,0c-1,0.4-1.9,0.7-2.9,1.1c-0.3,0.1-0.5,0.1-0.9,0c-0.3-0.1-0.5-0.3-0.6-0.6
		c-0.1-0.1-0.1-0.3-0.1-0.4c0-0.1,0-0.1,0.1-0.2c0.1-0.2,0.2-0.4,0.4-0.4c1.9-0.5,3.6-1.2,5.3-2s3.1-1.7,4.3-2.7
		c0.5-0.4,1.2-0.7,1.8-0.7h0.2c0.5,0,1.1,0.2,1.5,0.5l0,0l0,0c-0.1-0.2-0.2-0.4-0.1-0.6s0.2-0.4,0.4-0.5c0.6-0.2,1.4-0.5,2-1
		c0.1,0,0.1-0.1,0.1-0.1c0-0.1,0-0.1-0.1-0.1c-0.7-0.4-1.5-0.9-2.1-1.2c-0.2-0.1-0.3-0.3-0.4-0.5c0-0.2,0-0.4,0.2-0.6
		c0.2-0.2,0.4-0.3,0.7-0.4c0.1,0,0.2,0,0.3,0c0.2,0,0.4,0.1,0.6,0.2c0.9,0.4,1.7,0.9,2.5,1.3c0.2,0.1,0.3,0.1,0.4-0.1
		c0.7-0.6,1.3-1.4,1.8-2.1c0-0.1,0-0.1,0-0.2s-0.1-0.1-0.1-0.1h-5.9c-0.2,0-0.4-0.1-0.6-0.2c-0.2-0.2-0.3-0.4-0.3-0.6
		s0.1-0.5,0.3-0.6c0.2-0.2,0.4-0.3,0.6-0.3h7.4h0.1c0.1,0,0.1,0,0.2,0c0.2,0,0.3,0,0.4,0.1l0.4,0.2c0.2,0.1,0.3,0.2,0.4,0.4
		c0.1,0.2,0.1,0.4,0,0.6c-0.6,1.5-1.6,2.9-2.8,4.2c-0.1,0.1-0.1,0.2,0,0.3c1.2,0.7,2.1,1.4,3,2c0.3,0.2,0.4,0.4,0.4,0.9
		c0,0.3-0.1,0.5-0.3,0.7c-0.2,0.2-0.5,0.3-0.9,0.3c0,0,0,0-0.1,0c-0.3,0-0.5-0.1-0.7-0.3c-0.9-0.6-1.9-1.5-3.1-2.2
		c-0.2-0.1-0.3-0.1-0.4,0c-0.9,0.6-1.8,1.2-2.9,1.6c-0.1,0-0.1,0.1-0.1,0.1c0,0.1,0,0.1,0.1,0.1c2.6,1.6,5.4,2.8,8.8,3.6
		c0.2,0.1,0.4,0.2,0.5,0.4c0,0.1,0.1,0.2,0.1,0.3c0,0.1,0,0.3-0.1,0.4c-0.2,0.3-0.4,0.5-0.7,0.6c-0.2,0.1-0.3,0.1-0.5,0.1
		c-0.1,0-0.2,0-0.4-0.1c-0.7-0.2-1.6-0.5-2.5-0.9c-0.1,0-0.1,0-0.2,0c-0.1,0-0.1,0.1-0.1,0.1L164.5,28.6
		C164.5,28.6,164.5,28.7,164.5,28.6z M153.3,14.1V14l-0.1-0.1h-4.4c-0.2,0-0.3,0.1-0.4,0.2c0,0-0.1,0-0.1,0.1
		c-0.1,0-0.1,0.1-0.1,0.1c0,0.1,0,0.1,0.1,0.1c1,0.5,1.8,1,2.6,1.5c0.1,0.1,0.3,0.1,0.4,0C152.1,15.4,152.7,14.8,153.3,14.1z
		 M154,22c-0.2,0-0.4-0.1-0.6-0.2c-0.2-0.2-0.2-0.3-0.2-0.6c0-0.1,0-0.1-0.1-0.1c-1.1,0.6-2.2,1.2-3.5,1.7c0,0,0,0,0,0.1
		c0,0,0,0,0.1,0h1.1l0,0H164l0,0l0,0c-1.3-0.5-2.5-1.1-3.6-1.7c-0.1,0-0.1,0-0.1,0.1c0,0.2-0.1,0.4-0.2,0.6s-0.3,0.2-0.6,0.2H154V22
		z M152.1,24.3c-0.2,0-0.3,0.1-0.3,0.3v0.5c0,0.2,0.1,0.3,0.3,0.3h9.7c0.2,0,0.3-0.1,0.3-0.3v-0.5c0-0.2-0.1-0.3-0.3-0.3H152.1z
		 M152.1,26.8c-0.2,0-0.3,0.1-0.3,0.3v0.6c0,0.2,0.1,0.3,0.3,0.3h9.7c0.2,0,0.3-0.1,0.3-0.3v-0.6c0-0.2-0.1-0.3-0.3-0.3
		C161.8,26.8,152.1,26.8,152.1,26.8z M151.7,31.4c0,0.1,0,0.2,0.1,0.2c0.1,0,0.1,0.1,0.2,0.1l4.8-0.4c0.1,0,0.1,0,0.1-0.1v-0.1
		c-0.4-0.4-0.9-0.9-1.3-1.3c-0.1-0.1-0.2-0.2-0.4-0.2h-3.2c-0.2,0-0.3,0.1-0.3,0.3L151.7,31.4L151.7,31.4z M154.2,20.4L154.2,20.4
		c0,0.1,0,0.1,0.1,0.1h4.7c0,0,0.1,0,0.1-0.1v-0.1c-0.9-0.5-1.6-1.1-2.2-1.6c-0.1-0.1-0.3-0.1-0.4,0
		C155.8,19.3,155.2,19.7,154.2,20.4z M163.1,29.7C163.1,29.6,163.1,29.6,163.1,29.7c0-0.1,0-0.1,0-0.1h-4.8c0,0-0.1,0-0.1,0.1v0.1
		c0.6,0.5,1.4,1,2.4,1.3c0.2,0.1,0.3,0.1,0.5,0C161.7,30.5,162.4,30.1,163.1,29.7z"/>
	<path class="st0" d="M181.6,12.3c-0.2,0-0.3,0.1-0.3,0.3v6.5c0,6.2-0.6,11-1.8,14.3c-0.1,0.3-0.3,0.4-0.6,0.5
		c-0.3,0.1-0.5,0-0.7-0.2c-0.3-0.2-0.5-0.4-0.6-0.9c0-0.2-0.1-0.3-0.1-0.4c0-0.2,0-0.3,0.1-0.5c1-2.9,1.5-7.2,1.5-12.8v-6.4
		c0-0.6,0.2-1.3,0.6-1.7c0.4-0.4,1-0.7,1.7-0.7h7.9c0.1,0,0.2-0.1,0.2-0.2V9.6c0-0.4,0.1-0.7,0.4-1c0.2-0.3,0.5-0.4,1-0.4
		c0.3,0,0.6,0.1,1,0.4c0.2,0.3,0.4,0.6,0.4,1V10c0,0.1,0.1,0.2,0.2,0.2h9c0.3,0,0.5,0.1,0.7,0.3c0.2,0.2,0.3,0.4,0.3,0.7
		c0,0.3-0.1,0.5-0.3,0.7c-0.2,0.2-0.4,0.3-0.7,0.3h-19.8V12.3z M185.2,31.5c0,0.1,0.1,0.2,0.2,0.2l0.9-0.1c0.2,0,0.4,0,0.5,0.2
		c0.2,0.1,0.2,0.3,0.3,0.5c0,0.2-0.1,0.4-0.2,0.6c-0.1,0.2-0.3,0.3-0.5,0.3c-2,0.2-3.4,0.4-4.2,0.5c-0.2,0-0.4,0-0.6-0.2
		c-0.2-0.2-0.3-0.4-0.3-0.7c0-0.2,0.1-0.3,0.2-0.5c0.1-0.2,0.3-0.3,0.5-0.3c0.5,0,1-0.1,1.4-0.1c0.2,0,0.2-0.1,0.2-0.3v-1.2
		c0-0.1-0.1-0.2-0.2-0.2h-0.7c-0.2,0-0.4-0.1-0.5-0.2c-0.1-0.1-0.2-0.3-0.2-0.5s0.1-0.4,0.2-0.5c0.1-0.1,0.3-0.2,0.5-0.2h0.7
		c0.1,0,0.2-0.1,0.2-0.2v-1c0-0.1-0.1-0.2-0.2-0.2h-0.9c-0.2,0-0.4-0.1-0.5-0.2c-0.1-0.1-0.2-0.3-0.2-0.5s0.1-0.4,0.2-0.5
		c0.1-0.1,0.3-0.2,0.5-0.2h3.6c0.2,0,0.4,0.1,0.5,0.2c0.1,0.1,0.2,0.3,0.2,0.5s-0.1,0.4-0.2,0.5c-0.1,0.1-0.3,0.2-0.5,0.2h-0.9
		c-0.1,0-0.2,0.1-0.2,0.2v1c0,0.1,0.1,0.2,0.2,0.2h0.9c0.2,0,0.3,0.1,0.5,0.2c0.1,0.1,0.2,0.3,0.2,0.5s-0.1,0.4-0.2,0.5
		c-0.1,0.1-0.3,0.2-0.5,0.2h-0.9c-0.1,0-0.2,0.1-0.2,0.2v1.1H185.2z M190.5,14.1c0.2,0.2,0.2,0.3,0.2,0.6c0,0.2-0.1,0.4-0.2,0.6
		c-0.2,0.2-0.3,0.2-0.6,0.2h-0.3c-0.1,0-0.1,0-0.1,0.1v17.8c0,0.3-0.1,0.5-0.3,0.7c-0.2,0.2-0.4,0.3-0.6,0.3c-0.3,0-0.5-0.1-0.6-0.3
		c-0.2-0.2-0.3-0.4-0.3-0.7v-9c0-0.1,0-0.1-0.1-0.2c-0.1,0-0.1-0.1-0.2-0.1c-0.6,0.1-1.5,0.1-2.6,0.2c-1.1,0.1-1.8,0.1-2.1,0.2
		c-0.2,0-0.4-0.1-0.6-0.2c-0.2-0.2-0.3-0.4-0.3-0.7c0-0.2,0.1-0.4,0.2-0.5c0.2-0.2,0.3-0.3,0.6-0.3h0.4c0.1,0,0.2-0.1,0.2-0.2v-6.9
		c0-0.1,0-0.1-0.1-0.1h-0.2c-0.2,0-0.4-0.1-0.6-0.2c-0.2-0.2-0.2-0.3-0.2-0.6c0-0.2,0.1-0.4,0.2-0.6c0.2-0.2,0.3-0.2,0.6-0.2h7.2
		C190.2,13.8,190.3,13.9,190.5,14.1z M187.3,16.9c0.2,0,0.3-0.1,0.3-0.3v-0.7c0-0.2-0.1-0.3-0.3-0.3h-2.1c-0.2,0-0.3,0.1-0.3,0.3
		v0.7c0,0.2,0.1,0.3,0.3,0.3H187.3z M187.3,19.6c0.2,0,0.3-0.1,0.3-0.3v-0.9c0-0.2-0.1-0.3-0.3-0.3h-2.1c-0.2,0-0.3,0.1-0.3,0.3v0.9
		c0,0.2,0.1,0.3,0.3,0.3H187.3z M185,22.4c0,0.1,0,0.1,0.1,0.2c0.1,0.1,0.1,0.1,0.2,0.1l2.1-0.1c0.2,0,0.3-0.1,0.3-0.3v-0.9
		c0-0.2-0.1-0.3-0.3-0.3h-2.1c-0.2,0-0.3,0.1-0.3,0.3V22.4z M191.9,32.8c-0.1,0.2-0.2,0.4-0.5,0.4c-0.2,0.1-0.5,0-0.7-0.1
		c-0.2-0.1-0.3-0.3-0.4-0.5c0-0.1-0.1-0.2-0.1-0.3c0-0.1,0-0.3,0.1-0.4c0.3-0.7,0.5-1.6,0.6-2.6c0-0.2,0.1-0.4,0.3-0.5
		c0.2-0.1,0.4-0.1,0.6-0.1c0.2,0.1,0.4,0.2,0.5,0.4s0.2,0.4,0.1,0.7C192.6,31.1,192.2,32,191.9,32.8z M201.5,24.5
		c0.2,0,0.4,0.1,0.6,0.2c0.2,0.2,0.3,0.4,0.3,0.6c0,0.2-0.1,0.4-0.3,0.6c-0.2,0.2-0.4,0.2-0.6,0.2h-4.9c0,0-0.1,0-0.1,0.1v0.1
		c0.5,0.3,1,0.6,1.4,0.9c0.2,0.1,0.3,0.3,0.3,0.6c0,0.2-0.1,0.5-0.2,0.6c-0.2,0.2-0.3,0.3-0.6,0.3c-0.2,0-0.5-0.1-0.6-0.2
		c-0.5-0.4-1.2-0.9-1.8-1.3c-0.2-0.1-0.3-0.2-0.3-0.4s0-0.4,0.2-0.5c0,0,0,0,0-0.1h-3.2c-0.2,0-0.4-0.1-0.6-0.2
		c-0.2-0.2-0.2-0.4-0.2-0.6c0-0.2,0.1-0.4,0.2-0.6c0.2-0.2,0.4-0.2,0.6-0.2h9.9V24.5z M195.1,14.2c0-0.3,0.1-0.5,0.3-0.7
		c0.2-0.2,0.4-0.3,0.7-0.3c0.3,0,0.5,0.1,0.7,0.3c0.2,0.2,0.3,0.5,0.3,0.7v0.2c0,0.1,0,0.1,0.1,0.1h3.5c0.2,0,0.4,0.1,0.6,0.3
		c0.2,0.2,0.2,0.4,0.2,0.6s-0.1,0.5-0.2,0.6c-0.2,0.2-0.4,0.3-0.6,0.3h-3.3c-0.2,0-0.3,0.1-0.3,0.3v0.9c0,0.2,0.1,0.3,0.3,0.3h1.7
		c0.6,0,1.2,0.2,1.7,0.7c0.4,0.4,0.6,1.1,0.6,1.7v0.7c0,0.6-0.2,1.3-0.6,1.7c-0.4,0.4-1,0.7-1.7,0.7h-5.9c-0.6,0-1.2-0.2-1.7-0.7
		c-0.4-0.4-0.6-1.1-0.6-1.7v-0.9c0-0.6,0.2-1.3,0.6-1.7c0.4-0.4,1-0.7,1.7-0.7h1.4c0.2,0,0.3-0.1,0.3-0.3v-0.9
		c0-0.2-0.1-0.3-0.3-0.3h-3c-0.2,0-0.4-0.1-0.6-0.3c-0.2-0.2-0.3-0.4-0.3-0.6s0.1-0.5,0.3-0.6c0.2-0.2,0.4-0.3,0.6-0.3h3.1
		c0.1,0,0.2,0,0.2-0.1V14.2z M193.9,21.8c0.2,0,0.3-0.1,0.3-0.3v-1.8c0-0.2-0.1-0.3-0.3-0.3h-0.9c-0.2,0-0.3,0.1-0.3,0.3v1.8
		c0,0.2,0.1,0.3,0.3,0.3H193.9z M196,32.7h1.4c0.2,0,0.3-0.1,0.4-0.2c0.1-0.1,0.1-0.3,0.2-0.7c0-0.2,0.1-0.3,0.3-0.4
		c0.2-0.1,0.3-0.1,0.5,0c0.2,0.1,0.4,0.2,0.6,0.4c0.1,0.2,0.2,0.4,0.2,0.6c-0.1,0.7-0.3,1.3-0.6,1.6c-0.3,0.3-0.7,0.4-1.3,0.4h-1.9
		c-0.9,0-1.4-0.1-1.7-0.4c-0.3-0.3-0.4-1-0.4-1.8v-2.8c0-0.2,0.1-0.5,0.3-0.6c0.2-0.2,0.4-0.3,0.6-0.3c0.2,0,0.4,0.1,0.6,0.3
		c0.2,0.2,0.3,0.4,0.3,0.6V32c0,0.2,0,0.4,0.1,0.5C195.7,32.6,195.8,32.7,196,32.7z M196.8,21.8c0.2,0,0.3-0.1,0.3-0.3v-1.8
		c0-0.2-0.1-0.3-0.3-0.3h-1c-0.2,0-0.3,0.1-0.3,0.3v1.8c0,0.2,0.1,0.3,0.3,0.3H196.8z M198.8,19.3c-0.2,0-0.3,0.1-0.3,0.3v1.8
		c0,0.2,0.1,0.3,0.3,0.3h1c0.2,0,0.3-0.1,0.3-0.3v-1.8c0-0.2-0.1-0.3-0.3-0.3H198.8z M199.4,29.6c-0.1-0.1-0.1-0.2-0.1-0.4
		c0-0.1,0-0.1,0-0.2c0.1-0.2,0.2-0.3,0.4-0.4c0.1-0.1,0.2-0.1,0.4-0.1c0.1,0,0.2,0,0.3,0.1c0.2,0.1,0.4,0.2,0.6,0.4
		c0.6,1.1,1.1,2,1.4,3c0,0.1,0.1,0.2,0.1,0.3s0,0.3-0.1,0.4c-0.1,0.2-0.3,0.4-0.5,0.5c-0.1,0.1-0.2,0.1-0.3,0.1s-0.2,0-0.4-0.1
		s-0.3-0.3-0.4-0.5C200.4,31.6,199.9,30.6,199.4,29.6z"/>
</g>
<path class="st1" d="M31.2,10.8L19.7,4.2c-1.7-1-3.8-1-5.5,0L2.8,10.8c-1.7,1-2.8,2.8-2.8,4.8v13.3c0,2,1.1,3.8,2.8,4.8l11.5,6.6
	c0.9,0.5,1.8,0.7,2.8,0.7c1,0,1.9-0.2,2.7-0.7l11.5-6.6c1.7-1,2.8-2.8,2.8-4.8V15.5C34,13.6,33,11.8,31.2,10.8z M26.3,13
	c-1.1,0-2,0.9-2,2V28c0,1.1,0.9,2,2,2v0.5h-8.1V30c1.1,0,2-0.9,2-2v-4.7c0-1.1-0.9-2-2-2h-2.5c-1.1,0-2,0.9-2,2V28c0,1.1,0.9,2,2,2
	v0.5H7.6v-0.4c1.1,0,2-0.9,2-2V15c0-1.1-0.9-2-2-2v-0.5h8.1V13c-1.1,0-2,0.9-2,2v3.7c0,1.1,0.9,2,2,2h2.5c1.1,0,2-0.9,2-2V15
	c0-1.1-0.9-2-2-2v-0.5h8.1V13z"/>
</svg>
